# xmcd
#
# Track frame offsets: 
#        150
#        41447
#        58479
#        89095
#        117307
#        151397
#        166926
#        183932
#        200951
#        226290
#        246299
#        268817
#
# Disc length: 3984 seconds
#
# Revision: 0
# Processed by: cddbd v1.5.1PL0 Copyright (c) Steve Scherf et al.
# Submitted via: ExactAudioCopy v0.95b2
#
DISCID=b00f8e0c
DTITLE=Castle Browne Band - Deep Winter Blues
DYEAR=1900
DGENRE=Blues
TTITLE0=A Good Fool Is Hard To Find
TTITLE1=Phone Booth
TTITLE2=Take Out Some Insurance
TTITLE3=In Crowd
TTITLE4=Black Night
TTITLE5=Hideaway
TTITLE6=Marry Had A Little Lamb
TTITLE7=Funkfinger
TTITLE8=Caledonia
TTITLE9=My Mind Is On Vacation
TTITLE10=That's How Strong My Love Is
TTITLE11=I Rule My House
EXTD=
EXTT0=
EXTT1=
EXTT2=
EXTT3=
EXTT4=
EXTT5=
EXTT6=
EXTT7=
EXTT8=
EXTT9=
EXTT10=
EXTT11=
PLAYORDER=
